<svg width="900" height="289" xmlns="http://www.w3.org/2000/svg" preserveAspectRatio="xMidYMid">

 <g>
  <title>background</title>
  <rect fill="none" id="canvas_background" height="291" width="902" y="-1" x="-1"/>
 </g>
 <g>
  <title>Layer 1</title>
  <path id="svg_1" fill="#5294CF" d="m165.258,288.501l3.508,0l57.261,-28.634l0.953,-1.347l0,-228.556l-0.953,-1.354l-57.261,-28.61l-3.551,0l0.043,288.501"/>
  <path id="svg_2" fill="#1F5B98" d="m90.741,288.501l-3.557,0l-57.212,-28.634l-1.161,-1.997l-0.589,-226.742l1.75,-2.518l57.212,-28.61l3.601,0l-0.044,288.501"/>
  <path id="svg_3" fill="#2D72B8" d="m87.285,0l81.426,0l0,288.501l-81.426,0l0,-288.501z"/>
  <path id="svg_4" fill="#1A476F" d="m256,137.769l-1.935,-0.429l-27.628,-2.576l-0.41,0.204l-57.312,-2.292l-81.43,0l-57.313,2.292l0,-43.704l-0.06,0.032l0.06,-0.128l57.313,-13.28l81.43,0l57.312,13.28l21.069,11.199l0,-7.2l8.904,-0.974l-0.922,-1.798l-28.192,-20.159l-0.859,0.279l-57.312,-17.759l-81.43,0l-57.313,17.759l0,-43.905l-29.972,35.113l0,30.666l0.232,-0.168l8.672,0.946l0,7.348l-8.904,4.765l0,30.513l0.232,-0.024l8.672,0.128l0,12.807l-7.482,0.112l-1.422,-0.136l0,30.525l8.904,4.788l0,7.433l-8.531,0.942l-0.373,-0.28l0,30.661l29.972,35.118l0,-43.901l57.313,17.759l81.43,0l57.481,-17.811l0.764,0.335l27.821,-19.862l1.219,-1.979l-8.904,-0.982l0,-7.284l-1.167,-0.466l-19.043,10.265l-0.69,1.44l-57.481,13.203l0,0.016l-81.43,0l0,-0.016l-57.313,-13.259l0,-43.864l57.313,2.284l0,0.056l81.43,0l57.312,-2.34l1.305,0.6l26.779,-2.306l1.889,-0.923l-8.904,-0.128l0,-12.807l8.904,-0.128"/>
  <path id="svg_5" fill="#2D72B8" d="m226.027,215.966l0,43.901l29.973,-35.118l0,-30.461l-29.8,21.626l-0.173,0.052m0,-18.545l0.173,-0.04l29.8,-16.028l0,-30.649l-29.973,2.757l0,43.96m0.173,-106.213l-0.173,-0.04l0,43.8l29.973,2.801l0,-30.634l-29.8,-15.927m0,-18.521l29.8,21.506l0,-30.462l-29.973,-35.121l0,43.905l0.173,0.06l0,0.112"/>
  <text xml:space="preserve" text-anchor="start" font-family="Helvetica, Arial, sans-serif" font-size="84" id="svg_6" y="167.9375" x="293.5" stroke-width="0" fill="#2D72B8">DYNA</text>
  <text xml:space="preserve" text-anchor="start" font-family="Helvetica, Arial, sans-serif" font-size="84" id="svg_8" y="167.9375" x="527.5" stroke-width="0" stroke="#000" fill="#000000">MODEL</text>
 </g>
</svg>